<svg width="16" height="16" xmlns="http://www.w3.org/2000/svg">
  <g fill-rule="nonzero">
    <path d="M0 0h16v16H0z" fill="none" />
    <path d="M14.667 1.333c.368 0 .666.299.666.667v10a.667.667 0 0 1-.666.667l-6.715-.001-1.54 1.62a.667.667 0 0 1-.91.053l-.075-.074-1.397-1.599H1.333a.667.667 0 0 1-.66-.567L.668 12V2c0-.368.298-.667.666-.667ZM14 2.666H2v8.667h2.333c.154 0 .302.054.42.149l.082.08 1.115 1.275 1.234-1.296a.667.667 0 0 1 .374-.199l.109-.009H14V2.666ZM8 4.333c.335 0 .612.247.66.568L8.666 5l-.001 1.332L10 6.333a.667.667 0 0 1 .099 1.326L10 7.667H8.666V9a.667.667 0 0 1-1.325.099L7.333 9V7.666H6a.667.667 0 0 1-.099-1.325L6 6.333h1.333V5c0-.368.299-.667.667-.667Z" />
  </g>
</svg>