<svg width="16" height="16" xmlns="http://www.w3.org/2000/svg">
  <g fill-rule="nonzero">
    <path d="M0 0h16v16H0z" fill="none"/>
    <path d="M14.667 1.333c.334 0 .611.247.66.568l.006.099v10a.667.667 0 0 1-.568.66l-.098.007-6.715-.001-1.54 1.62a.667.667 0 0 1-.817.118l-.093-.065-.075-.074-1.397-1.599H1.333a.667.667 0 0 1-.638-.473l-.021-.094L.667 12V2c0-.335.246-.612.568-.66l.098-.007h13.334Zm-10 4.5A.667.667 0 0 0 4 6.5v1l.007.099A.667.667 0 0 0 5.333 7.5v-1l-.007-.099a.667.667 0 0 0-.66-.568Zm3.333 0a.667.667 0 0 0-.667.667v1l.008.099A.667.667 0 0 0 8.667 7.5v-1l-.008-.099A.667.667 0 0 0 8 5.833Zm3.333 0a.667.667 0 0 0-.666.667v1l.007.099A.667.667 0 0 0 12 7.5v-1l-.007-.099a.667.667 0 0 0-.66-.568Z"/>
  </g>
</svg>